**ABCDEFGHIJKLMNOPQRSTUVWXYZabcdefghijklmnopqrstuvwxyz**************************
**PARASOLID !"#$%&'()*+,-./:;<=>?@[\]^_`{|}~0123456789**************************
**PART1;
MC=AMD64;
MC_MODEL=Intel64 Family 6 Model 141 Stepping 1, GenuineIntel;
MC_ID=unknown;
OS=Windows_NT;
OS_RELEASE=unknown;
FRU=Parasolid Version 33.1, build 247,  8- 6-2021;
APPL=SOLIDWORKS 2022-2022009;
SITE=;
USER=unknown;
FORMAT=text;
GUISE=transmit;
KEY=FILEWing Sim.x_t;
DATE=Mon Jul  8 20:37:02 2024;
**PART2;
SCH=SCH_3301247_33103;
USFLD_SIZE=0;
**PART3;
**END_OF_HEADER*****************************************************************
T51 : TRANSMIT FILE created by modeller version 330124723 SCH_3301247_33103_1300
6230 0 12 35 CCCI7 lattice222 0 CCCI4 mesh1006 0 I8 polyline1008 0 CCCCCCCDI5 ow
ner1040 0 CCCCCCI13 boundary_mesh1006 0 I17 boundary_polyline1008 0 CCCA16 index
_map_offset0 0 1 dA9 index_map82 0 A17 node_id_index_map82 0 A20 schema_embeddin
g_map82 0 A5 child12 0 A14 lowest_node_id0 0 1 dA16 mesh_offset_data206 0 Z1 345
 2 3 0 0 0 0 0 0 0 1e3 1e-8 0 4 0 1 0 1 1 5 6 7 8 0 0 9 10 11 0 0 0 0 0 0 0 81 2
55 2 2 335 12 1 13 0 0 0 0 14 70 11 CI9 list_type0 0 1 uI10 notransmit0 0 1 lCCC
DCCDI12 finger_index0 0 1 dI12 finger_block1012 0 CZ3 0 4 T1 0 0 8 20 1 15 15 13
 255 5 99 0 1 0 16 0 0 17 0 50 255 6 94 0 18 19 0 0 +0 .204676260253226 1.2 1 0
 0 0 0 -1 30 255 7 98 0 10 20 0 0 +0 -.167571352555479 1.2 0 0 -1 29 255 8 137 0
 11 21 0 .470852516189712 .0210946404381508 1.2 19 8 CCCCCCCA5 owner12 0 Z9 33 0
 1 17 0 22 V0 16 255 10 82 0 ?23 0 24 7 0 0 1 18 255 11 135 0 25 0 26 8 ?1 17 25
5 25 0 27 28 29 11 30 31 0 32 -18 26 112 0 33 11 34 21 ?1 17 33 0 35 36 37 26 38
 39 0 40 -18 34 30 0 41 26 42 43 ?1 29 21 114 0 26 44 8 .4425570498479935 .02885
627799304855 0 29 44 75 0 45 46 21 0 .204676260253226 0 18 45 66 0 47 48 49 44 ?
1 29 46 76 0 49 50 44 .728507712525835 .204676260253226 0 18 49 67 0 51 45 52 46
 ?1 29 50 77 0 52 53 46 .728507712525835 -.167571352555479 0 18 52 68 0 54 49 55
 50 ?1 29 53 78 0 55 43 50 0 -.167571352555479 0 18 55 69 0 56 52 57 53 ?1 29 43
 32 0 34 58 53 0 .204676260253226 1.2 29 58 29 0 42 59 43 .728507712525835 .2046
76260253226 1.2 18 42 27 0 60 34 61 58 ?1 29 59 26 0 61 62 58 .728507712525835 -
.167571352555479 1.2 18 61 24 0 63 42 48 59 ?1 29 62 23 0 48 64 59 0 -.167571352
555479 1.2 18 48 21 0 65 61 45 62 ?1 29 64 234 0 66 67 62 .470852516189712 .0210
946404381508 0 18 66 184 0 30 68 69 64 ?1 29 67 235 0 69 70 64 .470720248748028
 .02011245237953625 0 18 69 182 0 71 66 72 67 ?1 29 70 236 0 72 73 67 .441393772
3717935 .02011245237953615 0 18 72 189 0 74 69 0 70 ?1 29 73 237 0 57 75 70 .442
5570498479935 .0288562779930486 1.2 18 57 188 0 28 55 76 73 ?1 29 75 239 0 76 77
 73 .470720248748028 .02011245237953625 1.2 18 76 186 0 78 57 68 75 ?1 29 77 240
 0 68 0 75 .4413937723717935 .02011245237953615 1.2 18 68 183 0 79 76 66 77 ?1 1
7 79 0 35 37 36 68 80 81 0 82 +15 255 35 194 0 33 83 0 17 37 0 35 33 79 72 82 84
 0 38 +17 36 0 35 79 33 57 40 85 0 80 -17 80 0 86 87 88 57 79 81 0 0 -16 81 170
 0 ?79 89 90 91 0 0 1 17 82 0 92 78 74 68 37 84 0 88 -15 92 198 0 74 93 0 17 78
 0 92 71 82 76 88 89 0 94 +17 74 0 92 82 71 72 95 96 0 37 -16 84 161 0 ?37 97 98
 99 0 0 1 17 88 0 86 80 100 68 78 89 0 0 -15 86 133 0 88 16 0 17 100 0 86 88 87
 76 32 101 0 0 -16 89 173 0 ?78 101 81 102 0 0 1 16 101 176 0 ?32 103 89 104 0 0
 1 30 102 231 0 89 91 104 0 +.4413937723717935 .02011245237953615 1.2 1 29576063
85645725e-30 0 134 255 91 232 0 81 0 102 105 +106 107 31 255 104 230 0 101 102 1
08 0 +.470720248748028 .02061245237953625 1.2 0 0 1 1 0 0 5e-4 30 108 229 0 103
 104 109 0 +.470852516189712 .0210946404381508 1.2 -.964376117229069 .2645348833
67364 0 16 103 179 0 ?28 85 101 108 0 0 1 134 109 228 0 39 108 110 0 +111 112 16
 39 153 0 ?38 96 0 109 0 0 1 30 110 227 0 96 109 113 0 +.4413937723717935 .02011
245237953615 0 1 2957606385645725e-30 0 136 255 111 3 64 3 62 6 FFF1 114 115 116
 135 255 112 2 0 45 255 192 114 .4425570498479935 .0288562779930486 0 .439072672
672651 .02981206618939645 0 .4320999126202645 .0316715962162049 0 .4214868060055
28 .0341105780280946 0 .410779849110611 .03619753981014605 0 .4017201972743525 .
03748865738395495 0 .3944128185389605 .03820453267016085 0 .3888653375456915 .03
853590984873115 0 .383377043684156 .0386453962158012 0 .378776739099679 .0386310
045666827 0 .3749634902591815 .03843191909844655 0 .372066182641251 .03814001634
1929 0 .3692106833021525 .0377069672209041 0 .3668278184332335 .0372314362615503
 0 .3649084293258815 .0367538958923076 0 .363479940401 .03634948565525815 0 .362
056434922454 .0358957673309557 0 .3605728393488925 .03535285722665005 0 .3592876
982638795 .0347841452711708 0 .3582164476412235 .0342146001399463 0 .35738905058
5476 .0337068980737799 0 .3565526156580425 .0331030648747338 0 .3558207627458505
 .03247533575253955 0 .3553545034626445 .0320442095034921 0 .354855699670665 .03
155284955322285 0 .3543899571321875 .03102558515728895 0 .353964999314076 .03044
920344672245 0 .3535862829327915 .02976718625539905 0 .3532277389546475 .0289329
4429748865 0 .352961298812208 .0276499416267636 0 .353111643283169 .026298326888
9727 0 .353365330175192 .02545062328362265 0 .353695602528084 .02475288646118565
 0 .353998210399166 .02426241814422095 0 .354347839515911 .02379302286752555 0 .
354788881725835 .02330171510679685 0 .3553251422170035 .02281111284346725 0 .356
055967315444 .0222868342790246 0 .356839748985731 .02187183588103675 0 .35776546
7063464 .0215068160558118 0 .3586401162890175 .0212810109318307 0 .3592880459877
7 .02113026184408495 0 .3600697833237685 .02095624802136365 0 .360904853145306 .
02080557769864755 0 .3619718981458685 .0206520119396105 0 .3632140247278205 .020
52641659106695 0 .364578709921404 .0204100810965767 0 .3659781837782085 .0203046
202883556 0 .367378711377044 .02021998496756045 0 .369228950931682 .020131407075
753 0 .3715306797350655 .02005636009829015 0 .374271249485054 .02001091897116075
 0 .3769910013781515 .01999444778214655 0 .379696108674457 .01999636834714825 0
 .383274859524469 .02000944400693585 0 .3877350213968705 .02001765991082855 0 .3
931044614098225 .0200244259580925 0 .3984704977432685 .0200350356377404 0 .40383
54537937345 .0200447632587505 0 .410989397891903 .02005802128023375 0 .419931476
2982805 .0200736388729501 0 .430662185951528 .0200932549024161 0 .43781663074924
7 .02010564307442425 0 .4413937723717935 .02011245237953615 0 127 255 62 115 4 1
 1 1 1 1 1 1 1 1 1 1 1 1 1 1 1 1 1 1 1 1 1 1 1 1 1 1 1 1 1 1 1 1 1 1 1 1 1 1 1 1
 1 1 1 1 1 1 1 1 1 1 1 1 1 1 1 1 1 1 1 4 128 255 62 116 0 .0624984756248744 .124
9969512497488 .187495426874623 .2499939024994975 .281243140311935 .3124923781243
72 .343741615936809 .3749908537492465 .390615472655465 .4062400915616835 .421864
710467902 .4374893293741205 .44530163882723 .453113948280339 .460926257733449 .4
68738567186558 .476550876639667 .480457031366222 .484363186092776 .4882693408193
31 .492175495545886 .49608165027244 .498034727635718 .499987804998995 .501940882
362272 .502917421043911 .50389395972555 .505847037088827 .506823575770466 .50780
0114452104 .508776653133743 .509753191815382 .51072973049702 .511706269178659 .5
13659346541936 .515612423905214 .517565501268491 .519518578631768 .5234247333583
23 .527330888084878 .531237042811432 .535143197537987 .539049352264542 .54686166
1717651 .55467397117076 .562486280623869 .570298590076979 .578110899530088 .5937
35518436307 .609360137342525 .624984756248744 .640609375154962 .656233994061181
 .687483231873618 .718732469686055 .749981707498493 .78123094531093 .81248018312
3367 .874978658748241 .937477134373116 .99997560999799 16 96 158 0 ?95 117 39 11
0 0 0 1 31 113 226 0 117 110 118 0 +.470720248748028 .02061245237953625 0 0 0 1
 1 0 0 5e-4 16 117 162 0 ?119 90 96 113 0 0 1 30 118 225 0 90 113 120 0 +.470852
516189712 .0210946404381508 0 -.964376117229069 .264534883367364 0 16 90 166 0 ?
121 81 117 118 0 0 1 30 120 224 0 85 118 122 0 +.4425570498479935 .0288562779930
486 1.2 0 0 -1 16 85 157 0 ?40 31 103 120 0 0 1 30 122 223 0 31 120 123 0 +.4708
52516189712 .0210946404381508 1.2 0 0 -1 16 31 169 0 ?30 98 85 122 0 0 1 30 123
 222 0 98 122 99 0 +.470720248748028 .02011245237953625 1.2 0 0 -1 16 98 165 0 ?
71 84 31 123 0 0 1 30 99 221 0 84 123 124 0 +.4413937723717935 .0201124523795361
5 1.2 0 0 -1 30 124 7 0 125 99 126 0 +0 .204676260253226 1.2 0 -1 0 16 125 5 0 ?
127 128 129 124 0 0 1 30 126 11 0 128 124 130 0 +0 -.167571352555479 1.2 1 0 0 1
6 128 9 0 ?63 131 125 126 0 0 1 30 130 15 0 131 126 132 0 +.728507712525835 .204
676260253226 1.2 0 1 0 16 131 13 0 ?60 133 128 130 0 0 1 30 132 19 0 133 130 134
 0 +0 .204676260253226 1.2 -1 0 0 16 133 17 0 ?41 135 131 132 0 0 1 30 134 74 0
 97 132 136 0 +0 .204676260253226 0 0 -1 0 16 97 62 0 ?137 138 84 134 0 0 1 30 1
36 73 0 138 134 139 0 +0 -.167571352555479 0 1 0 0 16 138 58 0 ?54 140 97 136 0
 0 1 30 139 72 0 140 136 141 0 +.728507712525835 .204676260253226 0 0 1 0 16 140
 54 0 ?51 129 138 139 0 0 1 30 141 71 0 129 139 142 0 +0 .204676260253226 0 -1 0
 0 16 129 50 0 ?47 125 140 141 0 0 1 30 142 95 0 135 141 143 0 +0 .2046762602532
26 1.2 0 0 -1 16 135 79 0 ?144 145 133 142 0 0 1 30 143 96 0 145 142 20 0 +.7285
07712525835 .204676260253226 1.2 0 0 -1 16 145 80 0 ?146 24 135 143 0 0 1 30 20
 97 0 24 143 7 0 +.728507712525835 -.167571352555479 1.2 0 0 -1 16 24 81 0 ?147
 10 145 20 0 0 1 17 147 0 148 51 149 52 150 24 0 151 +15 148 85 0 51 152 0 17 51
 0 148 153 147 49 151 140 0 146 +17 149 0 148 147 153 61 60 131 0 0 -17 150 0 15
4 65 54 61 147 24 0 149 -17 151 0 155 56 156 52 51 140 0 0 -15 155 49 0 157 158
 159 17 56 0 155 157 151 55 54 138 0 23 -17 156 0 155 151 157 49 47 129 0 0 -17
 157 0 155 156 56 45 137 97 0 0 -17 47 0 160 161 146 45 156 129 0 144 +15 160 83
 0 47 162 0 17 161 0 160 163 47 34 144 135 0 164 -17 146 0 160 47 163 49 153 145
 0 156 +17 144 0 165 137 164 45 161 135 0 157 +15 165 89 0 137 18 0 17 137 0 165
 166 144 55 157 97 0 0 +17 164 0 165 144 166 34 127 125 0 0 -17 166 0 165 164 13
7 48 23 10 0 0 -17 127 0 167 63 41 48 164 125 0 166 +15 167 4 0 127 16 86 17 63
 0 167 60 127 61 65 128 0 150 +17 41 0 167 127 60 34 163 133 0 161 +17 60 0 167
 41 63 42 149 131 0 153 +17 163 0 160 146 161 42 41 133 0 0 -17 153 0 148 149 51
 42 146 145 0 163 -17 65 0 154 23 150 48 63 128 0 127 -15 154 87 0 54 168 0 17 2
3 0 154 54 65 55 166 10 0 137 +17 54 0 154 150 23 52 56 138 0 147 +14 255 168 88
 169 ?152 18 154 5 19 -0 0 152 18 22 81 1 169 336 170 168 171 0 0 172 173 14 152
 86 172 ?162 168 148 5 174 -0 0 162 168 22 14 18 90 175 ?168 158 165 5 6 -0 0 16
8 158 22 50 19 93 0 168 174 6 0 +0 -.167571352555479 1.2 0 1 0 0 0 1 13 22 34 0
 0 0 0 0 0 9 16 14 16 150 176 ?158 0 167 5 177 +0 0 158 0 22 81 1 176 339 170 16
 178 0 175 179 180 14 158 130 179 ?18 16 155 5 181 -0 0 18 16 22 50 177 3 0 16 1
82 181 0 +0 0 1.2 0 0 1 1 0 0 67 255 182 215 0 83 183 177 0 +91 0 0 -1 .00514812
587408874 50 181 70 0 158 177 184 0 +0 0 0 0 0 1 1 0 0 50 184 91 0 162 181 174 0
 +0 .204676260253226 1.2 0 -1 0 0 0 -1 14 162 84 185 ?83 152 160 5 184 -0 0 83 1
52 22 50 174 92 0 152 184 19 0 +.728507712525835 .204676260253226 1.2 -1 0 0 0 0
 1 81 1 185 341 170 162 186 0 179 187 188 14 83 190 187 ?93 162 35 5 182 +0 0 93
 162 22 81 1 187 342 170 83 189 0 185 190 191 14 93 195 190 ?192 83 92 5 183 +0
 0 192 83 22 81 1 190 343 170 93 193 0 187 194 195 14 192 199 194 ?196 93 197 5
 198 +0 0 196 93 22 50 183 216 0 93 198 182 0 +.4413937723717935 .02011245237953
615 1.2 -2957606385645725e-30 1 0 -1 -2957606385645725e-30 0 51 255 198 217 0 19
2 199 183 0 -.470720248748028 .02061245237953625 1.2 0 0 -1 5e-4 -1 0 0 50 199 2
18 0 196 0 198 0 +.470852516189712 .0210946404381508 1.2 -.264534883367364 -.964
376117229069 0 .964376117229069 -.264534883367364 0 14 196 203 200 ?0 192 27 5 1
99 +0 0 0 192 22 81 1 200 345 170 196 201 0 194 0 202 15 27 206 0 29 196 0 17 29
 0 27 25 40 66 121 90 0 119 -17 40 0 27 29 28 26 36 85 0 121 +17 121 0 159 38 11
9 26 29 90 0 0 +17 119 0 159 121 95 66 203 117 0 0 +15 159 128 0 38 158 0 17 95
 0 159 119 38 69 74 96 0 0 +17 203 0 197 94 30 69 119 117 0 95 -15 197 202 0 203
 192 0 17 94 0 197 32 203 76 71 98 0 100 -17 30 0 197 203 32 66 25 31 0 29 +17 3
2 0 197 30 94 11 100 101 0 87 +17 87 0 86 100 80 11 28 103 0 0 -17 28 0 27 40 25
 57 87 103 0 36 +17 71 0 92 74 78 69 94 98 0 203 +17 38 0 159 95 121 72 33 39 0
 0 +80 255 1 170 204 205 9000 1 1 1 1 1 1 1 1 0 FFFFTFTFFFFFFF1 81 1 201 313 206
 196 0 200 207 0 208 81 1 194 344 170 192 207 0 190 200 209 82 255 1 202 1808990
318 81 1 207 312 206 192 0 194 193 201 210 82 1 209 1809252462 80 1 206 0 211 80
01 0 0 0 0 3 5 0 0 0 FFFFTFTFFFFFFF2 81 1 193 311 206 93 0 190 189 207 212 83 25
5 3 210 .792156862745098 .819607843137255 .933333333333333 81 1 189 310 206 83 0
 187 186 193 213 83 3 212 .792156862745098 .819607843137255 .933333333333333 81
 1 186 309 206 162 0 185 214 189 215 83 3 213 .792156862745098 .819607843137255
 .933333333333333 81 1 214 308 206 152 0 172 171 186 216 83 3 215 .7921568627450
98 .819607843137255 .933333333333333 81 1 172 337 170 152 214 0 169 175 217 81 1
 171 307 206 168 0 169 218 214 219 83 3 216 .792156862745098 .819607843137255 .9
33333333333333 81 1 218 306 206 18 0 175 220 171 221 83 3 219 .792156862745098 .
819607843137255 .933333333333333 81 1 175 338 170 18 218 0 172 176 222 81 1 220
 305 206 158 0 179 178 218 223 83 3 221 .792156862745098 .819607843137255 .93333
3333333333 81 1 179 340 170 158 220 0 176 185 224 81 1 178 304 206 16 0 176 0 22
0 225 83 3 223 .792156862745098 .819607843137255 .933333333333333 83 3 225 .7921
56862745098 .819607843137255 .933333333333333 82 1 224 1825308782 82 1 222 18215
73230 82 1 217 1821048942 79 255 15 211 SDL/TYSA_COLOUR83 3 208 .792156862745098
 .819607843137255 .933333333333333 79 14 205 SWEntUnchanged82 1 195 1809514606 8
2 1 191 1809776750 82 1 188 1820786798 82 1 180 1827143790 82 1 173 1821311086 1
41 255 105 182 105 105 91 136 106 3 64 3 62 6 FFF1 226 227 228 135 107 2 0 45 19
2 226 .4425570498479935 .0288562779930486 1.2 .439072672672651 .0298120661893964
5 1.2 .4320999126202645 .0316715962162049 1.2 .421486806005528 .0341105780280946
 1.2 .410779849110611 .03619753981014605 1.2 .4017201972743525 .0374886573839549
5 1.2 .3944128185389605 .03820453267016085 1.2 .3888653375456915 .03853590984873
115 1.2 .383377043684156 .0386453962158012 1.2 .378776739099679 .038631004566682
7 1.2 .3749634902591815 .03843191909844655 1.2 .372066182641251 .038140016341929
 1.2 .3692106833021525 .0377069672209041 1.2 .3668278184332335 .0372314362615503
 1.2 .3649084293258815 .0367538958923076 1.2 .363479940401 .03634948565525815 1.
2 .362056434922454 .0358957673309557 1.2 .3605728393488925 .03535285722665005 1.
2 .3592876982638795 .0347841452711708 1.2 .3582164476412235 .0342146001399463 1.
2 .357389050585476 .0337068980737799 1.2 .3565526156580425 .0331030648747338 1.2
 .3558207627458505 .03247533575253955 1.2 .3553545034626445 .0320442095034921 1.
2 .354855699670665 .03155284955322285 1.2 .3543899571321875 .03102558515728895 1
.2 .353964999314076 .03044920344672245 1.2 .3535862829327915 .02976718625539905
 1.2 .3532277389546475 .02893294429748865 1.2 .352961298812208 .0276499416267636
 1.2 .353111643283169 .0262983268889727 1.2 .353365330175192 .02545062328362265
 1.2 .353695602528084 .02475288646118565 1.2 .353998210399166 .02426241814422095
 1.2 .354347839515911 .02379302286752555 1.2 .354788881725835 .02330171510679685
 1.2 .3553251422170035 .02281111284346725 1.2 .356055967315444 .0222868342790246
 1.2 .356839748985731 .02187183588103675 1.2 .357765467063464 .0215068160558118
 1.2 .3586401162890175 .0212810109318307 1.2 .35928804598777 .02113026184408495
 1.2 .3600697833237685 .02095624802136365 1.2 .360904853145306 .0208055776986475
5 1.2 .3619718981458685 .0206520119396105 1.2 .3632140247278205 .020526416591066
95 1.2 .364578709921404 .0204100810965767 1.2 .3659781837782085 .020304620288355
6 1.2 .367378711377044 .02021998496756045 1.2 .369228950931682 .020131407075753
 1.2 .3715306797350655 .02005636009829015 1.2 .374271249485054 .0200109189711607
5 1.2 .3769910013781515 .01999444778214655 1.2 .379696108674457 .019996368347148
25 1.2 .383274859524469 .02000944400693585 1.2 .3877350213968705 .02001765991082
855 1.2 .3931044614098225 .0200244259580925 1.2 .3984704977432685 .0200350356377
404 1.2 .4038354537937345 .0200447632587505 1.2 .410989397891903 .02005802128023
375 1.2 .4199314762982805 .0200736388729501 1.2 .430662185951528 .02009325490241
61 1.2 .437816630749247 .02010564307442425 1.2 .4413937723717935 .02011245237953
615 1.2 127 62 227 4 1 1 1 1 1 1 1 1 1 1 1 1 1 1 1 1 1 1 1 1 1 1 1 1 1 1 1 1 1 1
 1 1 1 1 1 1 1 1 1 1 1 1 1 1 1 1 1 1 1 1 1 1 1 1 1 1 1 1 1 1 4 128 62 228 0 .062
4984756248744 .1249969512497488 .187495426874623 .2499939024994975 .281243140311
935 .312492378124372 .343741615936809 .3749908537492465 .390615472655465 .406240
0915616835 .421864710467902 .4374893293741205 .44530163882723 .453113948280339 .
460926257733449 .468738567186558 .476550876639667 .480457031366222 .484363186092
776 .488269340819331 .492175495545886 .49608165027244 .498034727635718 .49998780
4998995 .501940882362272 .502917421043911 .50389395972555 .505847037088827 .5068
23575770466 .507800114452104 .508776653133743 .509753191815382 .51072973049702 .
511706269178659 .513659346541936 .515612423905214 .517565501268491 .519518578631
768 .523424733358323 .527330888084878 .531237042811432 .535143197537987 .5390493
52264542 .546861661717651 .55467397117076 .562486280623869 .570298590076979 .578
110899530088 .593735518436307 .609360137342525 .624984756248744 .640609375154962
 .656233994061181 .687483231873618 .718732469686055 .749981707498493 .7812309453
1093 .812480183123367 .874978658748241 .937477134373116 .99997560999799 19 17 10
0 0 1 0 9 5 S0 74 4 CI16 index_map_offset0 0 1 dCCZ20 15 8 0 0 229 230 200 231 2
32 13 201 2 0 0 0 0 0 0 0 0 0 0 0 0 81 2 229 111 233 1 0 230 0 0 0 234 81 2 230
 268 235 1 229 231 0 0 0 236 81 1 231 279 237 1 230 232 0 0 238 81 2 232 280 239
 1 231 13 0 0 0 0 81 2 13 292 240 1 232 2 0 0 0 241 80 2 240 242 243 9000 0 0 0
 0 3 5 0 0 0 FFTFFFFFFFFFFF9 1 82 1 241 1 79 24 243 BODY_IN_LIGHTWEIGHT_PERM80 2
 239 244 245 9000 0 0 0 0 3 5 0 0 0 FFTFFFFFFFFFFF9 1 79 16 245 BODY_RECIPE_2001
80 1 237 246 247 9000 1 1 1 1 1 1 1 1 0 FFTFFFFFFFFFFF1 82 1 238 945185 79 10 24
7 BODY_MATCH80 2 235 248 249 9000 0 0 0 0 3 5 0 0 0 FFTFFFFFFFFFFF9 1 82 1 236 3
2 79 30 249 LAST_BODY_MODIFYING_FEATURE_ID80 2 233 250 251 9000 0 0 0 0 3 5 0 0
 0 FFTFFFFFFFFFFT9 1 82 1 234 109 79 19 251 ENT_TIME_STAMP_200180 2 12 252 253 9
000 0 0 0 0 3 5 0 0 0 FFTFFFFFFFFFFF9 1 82 1 14 101 79 12 253 ATOM_ID_20011 0 
